<svg xmlns="http://www.w3.org/2000/svg" viewBox="0 0 640 330" style="width:100%;max-width:640px;height:auto;font-family:-apple-system,Segoe UI,Roboto,Arial,sans-serif"><defs><marker id="pepo" viewBox="0 0 10 10" refX="9" refY="5" markerWidth="7" markerHeight="7" orient="auto-start-reverse"><path d="M0,0 L10,5 L0,10 z" fill="#5b6b82"/></marker></defs><rect x="0" y="0" width="640" height="330" rx="12" fill="#ffffff"/><line x1="230" y1="58" x2="280" y2="58" stroke="#5b6b82" stroke-width="2" marker-end="url(#pepo)"/><line x1="360" y1="58" x2="410" y2="58" stroke="#5b6b82" stroke-width="2" marker-end="url(#pepo)"/><line x1="510" y1="86" x2="510" y2="140" stroke="#5b6b82" stroke-width="2" marker-end="url(#pepo)"/><line x1="510" y1="188" x2="510" y2="250" stroke="#5b6b82" stroke-width="2" marker-end="url(#pepo)"/><line x1="410" y1="278" x2="230" y2="278" stroke="#5b6b82" stroke-width="2" marker-end="url(#pepo)"/><line x1="130" y1="250" x2="130" y2="93" stroke="#5b6b82" stroke-width="2"/><line x1="121" y1="93" x2="139" y2="93" stroke="#5b6b82" stroke-width="3"/><rect x="30" y="30" width="200" height="56" rx="8" fill="#eef2f7" stroke="#5b6b82" stroke-width="1.5"/><text x="130" y="54.1" font-size="15" text-anchor="middle" fill="#1b2430">Nier: zuurstofsensor</text><text x="130" y="72.4" font-size="15" text-anchor="middle" fill="#1b2430">(HIF)</text><rect x="280" y="38" width="80" height="40" rx="8" fill="#eef2f7" stroke="#5b6b82" stroke-width="1.5"/><text x="320" y="63.2" font-size="15" text-anchor="middle" fill="#1b2430">EPO</text><rect x="410" y="30" width="200" height="56" rx="8" fill="#eef2f7" stroke="#5b6b82" stroke-width="1.5"/><text x="510" y="54.1" font-size="15" text-anchor="middle" fill="#1b2430">Beenmerg: erytropoëse</text><text x="510" y="72.4" font-size="15" text-anchor="middle" fill="#1b2430">(ijzer, B12, folaat)</text><rect x="410" y="140" width="200" height="48" rx="8" fill="#f7f7f4" stroke="#5b6b82" stroke-width="1.5" stroke-dasharray="4 3"/><text x="510" y="169.2" font-size="15" text-anchor="middle" fill="#1b2430">Hb en erytrocyten ↑</text><rect x="410" y="250" width="200" height="56" rx="8" fill="#eef2f7" stroke="#5b6b82" stroke-width="1.5"/><text x="510" y="274.1" font-size="15" text-anchor="middle" fill="#1b2430">O2-transport</text><text x="510" y="292.4" font-size="15" text-anchor="middle" fill="#1b2430">(longen + hart)</text><rect x="30" y="250" width="200" height="56" rx="8" fill="#eef2f7" stroke="#5b6b82" stroke-width="1.5"/><text x="130" y="274.1" font-size="15" text-anchor="middle" fill="#1b2430">Weefsel-O2 ↑</text><text x="130" y="292.4" font-size="15" text-anchor="middle" fill="#1b2430">→ minder EPO</text></svg>