<svg xmlns="http://www.w3.org/2000/svg" viewBox="0 0 640 330" style="width:100%;max-width:640px;height:auto;font-family:-apple-system,Segoe UI,Roboto,Arial,sans-serif"><defs><marker id="phepcidine" viewBox="0 0 10 10" refX="9" refY="5" markerWidth="7" markerHeight="7" orient="auto-start-reverse"><path d="M0,0 L10,5 L0,10 z" fill="#5b6b82"/></marker></defs><rect x="0" y="0" width="640" height="330" rx="12" fill="#ffffff"/><line x1="260" y1="76" x2="260" y2="125" stroke="#5b6b82" stroke-width="2" marker-end="url(#phepcidine)"/><line x1="380" y1="76" x2="380" y2="118" stroke="#5b6b82" stroke-width="2"/><line x1="389" y1="118" x2="371" y2="118" stroke="#5b6b82" stroke-width="3"/><line x1="260" y1="173" x2="260" y2="233" stroke="#5b6b82" stroke-width="2"/><line x1="269" y1="233" x2="251" y2="233" stroke="#5b6b82" stroke-width="3"/><line x1="380" y1="173" x2="380" y2="233" stroke="#5b6b82" stroke-width="2"/><line x1="389" y1="233" x2="371" y2="233" stroke="#5b6b82" stroke-width="3"/><rect x="20" y="20" width="280" height="56" rx="8" fill="#eef2f7" stroke="#5b6b82" stroke-width="1.5"/><text x="160" y="44.1" font-size="15" text-anchor="middle" fill="#1b2430">↑ door inflammatie (IL-6)</text><text x="160" y="62.4" font-size="15" text-anchor="middle" fill="#1b2430">en ijzeroverschot</text><rect x="340" y="20" width="280" height="56" rx="8" fill="#eef2f7" stroke="#5b6b82" stroke-width="1.5"/><text x="480" y="44.1" font-size="15" text-anchor="middle" fill="#1b2430">↓ door erythroferrone (EPO),</text><text x="480" y="62.4" font-size="15" text-anchor="middle" fill="#1b2430">ijzergebrek en hypoxie</text><rect x="220" y="125" width="200" height="48" rx="8" fill="#f7f7f4" stroke="#5b6b82" stroke-width="1.5" stroke-dasharray="4 3"/><text x="320" y="154.2" font-size="15" text-anchor="middle" fill="#1b2430">Lever maakt hepcidine</text><rect x="20" y="240" width="280" height="56" rx="8" fill="#eef2f7" stroke="#5b6b82" stroke-width="1.5"/><text x="160" y="273.2" font-size="15" text-anchor="middle" fill="#1b2430">Ferroportine in de enterocyt</text><rect x="340" y="240" width="280" height="56" rx="8" fill="#eef2f7" stroke="#5b6b82" stroke-width="1.5"/><text x="480" y="273.2" font-size="15" text-anchor="middle" fill="#1b2430">Ferroportine in de macrofaag</text></svg>