<svg xmlns="http://www.w3.org/2000/svg" viewBox="0 0 640 200" style="width:100%;max-width:640px;height:auto;font-family:-apple-system,Segoe UI,Roboto,Arial,sans-serif"><defs><marker id="pmyeloom" viewBox="0 0 10 10" refX="9" refY="5" markerWidth="7" markerHeight="7" orient="auto-start-reverse"><path d="M0,0 L10,5 L0,10 z" fill="#5b6b82"/></marker></defs><rect x="0" y="0" width="640" height="200" rx="12" fill="#ffffff"/><line x1="150" y1="95" x2="170" y2="95" stroke="#5b6b82" stroke-width="2" marker-end="url(#pmyeloom)"/><line x1="310" y1="95" x2="330" y2="95" stroke="#5b6b82" stroke-width="2" marker-end="url(#pmyeloom)"/><line x1="470" y1="95" x2="490" y2="95" stroke="#5b6b82" stroke-width="2" marker-end="url(#pmyeloom)"/><rect x="10" y="40" width="140" height="110" rx="8" fill="#eef2f7" stroke="#5b6b82" stroke-width="1.5"/><text x="80" y="72.8" font-size="15" text-anchor="middle" fill="#1b2430">MGUS</text><text x="80" y="91.1" font-size="15" text-anchor="middle" fill="#1b2430">M-prot &lt;30 g/l</text><text x="80" y="109.4" font-size="15" text-anchor="middle" fill="#1b2430">&lt;10% plasmacel</text><text x="80" y="127.7" font-size="15" text-anchor="middle" fill="#1b2430">geen CRAB</text><rect x="170" y="40" width="140" height="110" rx="8" fill="#eef2f7" stroke="#5b6b82" stroke-width="1.5"/><text x="240" y="72.8" font-size="15" text-anchor="middle" fill="#1b2430">Smouldering</text><text x="240" y="91.1" font-size="15" text-anchor="middle" fill="#1b2430">M-prot ≥30 of</text><text x="240" y="109.4" font-size="15" text-anchor="middle" fill="#1b2430">≥10% plasmacel</text><text x="240" y="127.7" font-size="15" text-anchor="middle" fill="#1b2430">geen CRAB</text><rect x="330" y="40" width="140" height="110" rx="8" fill="#eef2f7" stroke="#5b6b82" stroke-width="1.5"/><text x="400" y="82.0" font-size="15" text-anchor="middle" fill="#1b2430">Multipel</text><text x="400" y="100.2" font-size="15" text-anchor="middle" fill="#1b2430">myeloom</text><text x="400" y="118.6" font-size="15" text-anchor="middle" fill="#1b2430">mét CRAB</text><rect x="490" y="40" width="140" height="110" rx="8" fill="#eef2f7" stroke="#5b6b82" stroke-width="1.5"/><text x="560" y="91.1" font-size="15" text-anchor="middle" fill="#1b2430">Plasmacel-</text><text x="560" y="109.4" font-size="15" text-anchor="middle" fill="#1b2430">leukemie</text></svg>